<?xml version="1.0" encoding="UTF-8"?><svg id="b" xmlns="http://www.w3.org/2000/svg" viewBox="0 0 103.06 97.87"><g id="c"><path d="m54.12,97.87c-8.29,0-16.4-2.09-23.61-6.07l-18.26,5.49c-3.69,1.11-7.66-.1-10.1-3.09-2.44-2.99-2.84-7.11-1.01-10.51l8.14-15.15c-2.72-6.19-4.09-12.77-4.09-19.6C5.19,21.95,27.14,0,54.12,0s48.93,21.95,48.93,48.94-21.95,48.94-48.93,48.94Zm-22.13-17.86l2.08,1.29c6.01,3.73,12.94,5.71,20.05,5.71,20.99,0,38.08-17.08,38.08-38.08S75.11,10.86,54.12,10.86,16.05,27.94,16.05,48.94c0,6.07,1.4,11.89,4.15,17.29l1.29,2.53-9.24,17.19,19.74-5.94Z" style="fill:#383838; stroke-width:0px;"/></g></svg>