<?xml version="1.0" encoding="UTF-8"?><svg id="b" xmlns="http://www.w3.org/2000/svg" viewBox="0 0 90.39 96.66"><g id="c"><path d="m88.48,40.8L57.93,5.79c-3.21-3.68-7.86-5.79-12.74-5.79s-9.53,2.11-12.74,5.79L1.91,40.8c-2,2.3-2.47,5.45-1.21,8.22,1.02,2.25,2.98,3.79,5.3,4.3v20.31c0,12.69,10.33,23.02,23.02,23.02h32.35c12.69,0,23.02-10.33,23.02-23.02v-20.31c2.32-.51,4.28-2.05,5.3-4.3,1.26-2.77.8-5.92-1.2-8.22ZM40.17,12.52c1.29-1.47,3.07-2.29,5.03-2.29s3.74.81,5.03,2.29l26.85,30.77H13.31l26.85-30.77Zm33.99,61.12c0,7.05-5.74,12.79-12.79,12.79H29.02c-7.05,0-12.79-5.74-12.79-12.79v-20.11h57.93v20.11Z" style="fill:#383838; stroke-width:0px;"/></g></svg>