<?xml version="1.0" encoding="UTF-8"?><svg id="b" xmlns="http://www.w3.org/2000/svg" viewBox="0 0 96.57 96.57"><g id="c"><path d="m48.28,0C21.66,0,0,21.66,0,48.28s21.66,48.28,48.28,48.28,48.28-21.66,48.28-48.28S74.91,0,48.28,0Zm37.67,43.17h-14.69c-.53-10.58-2.68-21.07-6.36-29.06,11.2,5.47,19.31,16.25,21.05,29.06Zm-37.67,43.17c-4.73,0-11.69-12.95-12.73-32.94h25.47c-1.04,19.99-8,32.94-12.73,32.94Zm-12.73-43.17c1.04-19.99,8-32.94,12.73-32.94s11.69,12.95,12.73,32.94h-25.47Zm-3.89-29.06c-3.67,7.99-5.83,18.48-6.36,29.06h-14.69c1.73-12.81,9.85-23.59,21.05-29.06ZM10.61,53.4h14.69c.53,10.58,2.68,21.07,6.36,29.06-11.2-5.47-19.32-16.25-21.05-29.06Zm54.29,29.06c3.67-7.99,5.83-18.48,6.36-29.06h14.69c-1.73,12.81-9.85,23.59-21.05,29.06Z" style="fill:#383838; stroke-width:0px;"/></g></svg>