<?xml version="1.0" encoding="UTF-8"?><svg id="b" xmlns="http://www.w3.org/2000/svg" viewBox="0 0 78.56 97.87"><g id="c"><path d="m47.77,45.46c8.79-3.42,15.04-11.94,15.04-21.92C62.81,10.56,52.26,0,39.28,0S15.75,10.56,15.75,23.53c0,9.98,6.26,18.51,15.04,21.92C13.2,49.35,0,65.05,0,83.79c0,7.76,6.32,14.08,14.08,14.08h50.4c7.76,0,14.08-6.32,14.08-14.08,0-18.74-13.2-34.44-30.8-38.33Zm-21.79-21.92c0-7.33,5.97-13.3,13.3-13.3s13.3,5.97,13.3,13.3-5.97,13.3-13.3,13.3-13.3-5.97-13.3-13.3Zm38.5,64.11H14.08c-2.12,0-3.85-1.73-3.85-3.85,0-16.02,13.03-29.05,29.05-29.05s29.05,13.03,29.05,29.05c0,2.12-1.73,3.85-3.85,3.85Z" style="fill:#383838; stroke-width:0px;"/></g></svg>